{
    "asset" : {
        "generator" : "Khronos glTF Blender I/O v1.6.16",
        "version" : "2.0"
    },
    "scene" : 0,
    "scenes" : [
        {
            "name" : "Scene",
            "nodes" : [
                0,
                1
            ]
        }
    ],
    "nodes" : [
        {
            "mesh" : 0,
            "name" : "Inflate 2.1",
            "rotation" : [
                0,
                0,
                0,
                -1
            ],
            "scale" : [
                0.00650409422814846,
                0.00650409422814846,
                0.00650409422814846
            ]
        },
        {
            "name" : "Camera",
            "rotation" : [
                -0.6330633759498596,
                -0.15655654668807983,
                0.13278722763061523,
                -0.7463836073875427
            ],
            "translation" : [
                1164.65625,
                695.7664184570312,
                2669.06884765625
            ]
        }
    ],
    "materials" : [
        {
            "doubleSided" : true,
            "name" : "Material.001",
            "pbrMetallicRoughness" : {}
        }
    ],
    "meshes" : [
        {
            "name" : "Inflate 2.1",
            "primitives" : [
                {
                    "attributes" : {
                        "POSITION" : 0,
                        "NORMAL" : 1
                    },
                    "indices" : 2,
                    "material" : 0
                }
            ]
        }
    ],
    "accessors" : [
        {
            "bufferView" : 0,
            "componentType" : 5126,
            "count" : 19533,
            "max" : [
                150.40591430664062,
                63.62506866455078,
                22.20037269592285
            ],
            "min" : [
                -152.52313232421875,
                -67.89663696289062,
                -34.44105529785156
            ],
            "type" : "VEC3"
        },
        {
            "bufferView" : 1,
            "componentType" : 5126,
            "count" : 19533,
            "type" : "VEC3"
        },
        {
            "bufferView" : 2,
            "componentType" : 5123,
            "count" : 117210,
            "type" : "SCALAR"
        }
    ],
    "bufferViews" : [
        {
            "buffer" : 0,
            "byteLength" : 234396,
            "byteOffset" : 0
        },
        {
            "buffer" : 0,
            "byteLength" : 234396,
            "byteOffset" : 234396
        },
        {
            "buffer" : 0,
            "byteLength" : 234420,
            "byteOffset" : 468792
        }
    ],
    "buffers" : [
        {
            "byteLength" : 703212,
            "uri" : "data:application/octet-stream;base64,"
        }
    ]
}
