{
	"asset":{
		"version":"2.0",
		"generator":"Created using the official Cinema 4D glTF Exporter 1.000x284978"
	},
	"scenes":[{
		"nodes":[0,
		1]
	}],
	"meshes":[{
		"primitives":[{
			"attributes":{
				"POSITION":1,
				"NORMAL":2
			},
			"indices":0,
			"material":0
		}],
		"name":"Inflate 2.1"
	}],
	"nodes":[{
		"name":"Inflate 2.1",
		"translation":[0.0,
		203.89276123046876,
		0.0],
		"rotation":[0.0,
		-0.2252911627292633,
		0.0,
		-0.9742915034294128],
		"scale":[1.0,
		1.0,
		1.0],
		"mesh":0
	},
	{
		"name":"Camera",
		"translation":[1164.65625,
		695.7664184570313,
		2669.06884765625],
		"rotation":[0.08012954145669937,
		-0.20459693670272828,
		-0.016807449981570245,
		-0.9754162430763245],
		"scale":[1.0,
		1.0,
		1.0],
		"camera":0
	}],
	"cameras":[{
		"type":"perspective",
		"perspective":{
			"znear":0.009999999776482582,
			"zfar":10000000000.0,
			"aspectRatio":1.7777777910232545,
			"yfov":0.06747438758611679
		}
	}],
	"accessors":[{
		"bufferView":0,
		"type":"SCALAR",
		"componentType":5123,
		"count":117210,
		"byteOffset":0,
		"min":[0],
		"max":[19532]
	},
	{
		"bufferView":1,
		"type":"VEC3",
		"componentType":5126,
		"count":19533,
		"byteOffset":0,
		"min":[-152.52313232421876,
		-67.89663696289063,
		-34.44105529785156],
		"max":[150.40591430664063,
		63.62506866455078,
		22.20037269592285]
	},
	{
		"bufferView":1,
		"type":"VEC3",
		"componentType":5126,
		"count":19533,
		"byteOffset":12,
		"min":[-0.9999629259109497,
		-0.9999343156814575,
		-0.9999895691871643],
		"max":[0.9999467730522156,
		0.9997496604919434,
		0.9999717473983765]
	}],
	"bufferViews":[{
		"buffer":0,
		"byteOffset":0,
		"byteLength":234420,
		"target":34963
	},
	{
		"buffer":0,
		"byteOffset":234420,
		"byteLength":468792,
		"target":34962,
		"byteStride":24
	}],
	"buffers":[{
		"uri":"data:application/octet-stream;base64,",
		"byteLength":703212
	}],
	"materials":[{
		"pbrMetallicRoughness":{
			"baseColorFactor":[1.0,
			1.0,
			1.0,
			1.0],
			"metallicFactor":1.0,
			"roughnessFactor":1.0
		},
		"emissiveFactor":[0.0,
		0.0,
		0.0],
		"alphaMode":"OPAQUE",
		"doubleSided":true,
		"name":""
	}]
}